HIERARCHY
ROOT mixamorig:Hips
{
	OFFSET 0.00 0.00 0.00
	CHANNELS 6 Xposition Yposition Zposition Zrotation Yrotation Xrotation
	JOINT mixamorig:Spine
	{
		OFFSET	0.0000	9.9235	-1.2273
		CHANNELS 3 Zrotation Yrotation Xrotation
		JOINT mixamorig:Spine1
		{
			OFFSET	-0.0001	11.6455	-1.4224
			CHANNELS 3 Zrotation Yrotation Xrotation
			JOINT mixamorig:Spine2
			{
				OFFSET	0.0001	13.3602	-1.6265
				CHANNELS 3 Zrotation Yrotation Xrotation
				JOINT mixamorig:Neck
				{
					OFFSET	0.0000	15.0325	0.7929
					CHANNELS 3 Zrotation Yrotation Xrotation
					JOINT mixamorig:Head
					{
						OFFSET	-0.0000	10.3218	3.1424
						CHANNELS 3 Zrotation Yrotation Xrotation
						JOINT mixamorig:HeadTop_End
						{
							OFFSET	0.0002	18.4747	6.6364
							CHANNELS 3 Zrotation Yrotation Xrotation
							End Site
							{
								OFFSET 0.0000 0.0000 0.0000
							}
						}
						JOINT mixamorig:LeftEye
						{
							OFFSET	2.9479	7.6817	9.1207
							CHANNELS 3 Zrotation Yrotation Xrotation
							End Site
							{
								OFFSET 0.0000 0.0000 0.0000
							}
						}
						JOINT mixamorig:RightEye
						{
							OFFSET	-2.9445	7.6817	9.1205
							CHANNELS 3 Zrotation Yrotation Xrotation
							End Site
							{
								OFFSET 0.0000 0.0000 0.0000
							}
						}
					}
				}
				JOINT mixamorig:LeftShoulder
				{
					OFFSET	6.1059	9.1104	0.7056
					CHANNELS 3 Zrotation Yrotation Xrotation
					JOINT mixamorig:LeftArm
					{
						OFFSET	12.6532	-0.3431	-2.6009
						CHANNELS 3 Zrotation Yrotation Xrotation
						JOINT mixamorig:LeftForeArm
						{
							OFFSET	27.3517	-0.9645	-1.4034
							CHANNELS 3 Zrotation Yrotation Xrotation
							JOINT mixamorig:LeftHand
							{
								OFFSET	27.5619	-0.7072	1.5500
								CHANNELS 3 Zrotation Yrotation Xrotation
								JOINT mixamorig:LeftHandMiddle1
								{
									OFFSET	12.6630	-1.3962	0.9548
									CHANNELS 3 Zrotation Yrotation Xrotation
									JOINT mixamorig:LeftHandMiddle2
									{
										OFFSET	3.6093	-0.1669	0.0778
										CHANNELS 3 Zrotation Yrotation Xrotation
										JOINT mixamorig:LeftHandMiddle3
										{
											OFFSET	3.4004	-0.6274	0.1148
											CHANNELS 3 Zrotation Yrotation Xrotation
											End Site
											{
												OFFSET 3.6205 -0.6493 0.1199
											}
										}
									}
								}
								JOINT mixamorig:LeftHandThumb1
								{
									OFFSET	3.3268	-2.0474	3.5790
									CHANNELS 3 Zrotation Yrotation Xrotation
									JOINT mixamorig:LeftHandThumb2
									{
										OFFSET	3.4890	-1.4806	2.8548
										CHANNELS 3 Zrotation Yrotation Xrotation
										JOINT mixamorig:LeftHandThumb3
										{
											OFFSET	3.4086	-1.7658	2.1133
											CHANNELS 3 Zrotation Yrotation Xrotation
											End Site
											{
												OFFSET 2.7231 -1.1597 1.7903
											}
										}
									}
								}
								JOINT mixamorig:LeftHandIndex1
								{
									OFFSET	11.9722	-1.1061	3.7324
									CHANNELS 3 Zrotation Yrotation Xrotation
									JOINT mixamorig:LeftHandIndex2
									{
										OFFSET	3.8387	-0.6406	-0.0310
										CHANNELS 3 Zrotation Yrotation Xrotation
										JOINT mixamorig:LeftHandIndex3
										{
											OFFSET	3.3346	-0.7374	-0.0133
											CHANNELS 3 Zrotation Yrotation Xrotation
											End Site
											{
												OFFSET 2.9714 -0.8030 0.0009
											}
										}
									}
								}
								JOINT mixamorig:LeftHandRing1
								{
									OFFSET	12.1659	-1.6805	-1.2769
									CHANNELS 3 Zrotation Yrotation Xrotation
									JOINT mixamorig:LeftHandRing2
									{
										OFFSET	3.5925	-0.2366	-0.0771
										CHANNELS 3 Zrotation Yrotation Xrotation
										JOINT mixamorig:LeftHandRing3
										{
											OFFSET	3.2906	-0.3266	-0.0615
											CHANNELS 3 Zrotation Yrotation Xrotation
											End Site
											{
												OFFSET 3.5423 -0.9211 -0.0200
											}
										}
									}
								}
								JOINT mixamorig:LeftHandPinky1
								{
									OFFSET	11.0508	-2.1872	-3.8040
									CHANNELS 3 Zrotation Yrotation Xrotation
									JOINT mixamorig:LeftHandPinky2
									{
										OFFSET	4.1236	-0.3047	0.1212
										CHANNELS 3 Zrotation Yrotation Xrotation
										JOINT mixamorig:LeftHandPinky3
										{
											OFFSET	2.5805	-0.2597	0.0823
											CHANNELS 3 Zrotation Yrotation Xrotation
											End Site
											{
												OFFSET 2.9027 -0.3379 0.0963
											}
										}
									}
								}
							}
						}
					}
				}
				JOINT mixamorig:RightShoulder
				{
					OFFSET	-6.1057	9.1105	0.7056
					CHANNELS 3 Zrotation Yrotation Xrotation
					JOINT mixamorig:RightArm
					{
						OFFSET	-12.6532	-0.3429	-2.6009
						CHANNELS 3 Zrotation Yrotation Xrotation
						JOINT mixamorig:RightForeArm
						{
							OFFSET	-27.3518	-0.9642	-1.4034
							CHANNELS 3 Zrotation Yrotation Xrotation
							JOINT mixamorig:RightHand
							{
								OFFSET	-27.5619	-0.7068	1.5501
								CHANNELS 3 Zrotation Yrotation Xrotation
								JOINT mixamorig:RightHandMiddle1
								{
									OFFSET	-12.6630	-1.3960	0.9549
									CHANNELS 3 Zrotation Yrotation Xrotation
									JOINT mixamorig:RightHandMiddle2
									{
										OFFSET	-3.6093	-0.1669	0.0778
										CHANNELS 3 Zrotation Yrotation Xrotation
										JOINT mixamorig:RightHandMiddle3
										{
											OFFSET	-3.4004	-0.6273	0.1148
											CHANNELS 3 Zrotation Yrotation Xrotation
											End Site
											{
												OFFSET -3.6205 -0.6492 0.1199
											}
										}
									}
								}
								JOINT mixamorig:RightHandThumb1
								{
									OFFSET	-3.3269	-2.0474	3.5790
									CHANNELS 3 Zrotation Yrotation Xrotation
									JOINT mixamorig:RightHandThumb2
									{
										OFFSET	-3.4890	-1.4805	2.8548
										CHANNELS 3 Zrotation Yrotation Xrotation
										JOINT mixamorig:RightHandThumb3
										{
											OFFSET	-3.4086	-1.7658	2.1133
											CHANNELS 3 Zrotation Yrotation Xrotation
											End Site
											{
												OFFSET -2.7231 -1.1596 1.7903
											}
										}
									}
								}
								JOINT mixamorig:RightHandIndex1
								{
									OFFSET	-11.9722	-1.1059	3.7324
									CHANNELS 3 Zrotation Yrotation Xrotation
									JOINT mixamorig:RightHandIndex2
									{
										OFFSET	-3.8387	-0.6406	-0.0310
										CHANNELS 3 Zrotation Yrotation Xrotation
										JOINT mixamorig:RightHandIndex3
										{
											OFFSET	-3.3346	-0.7373	-0.0133
											CHANNELS 3 Zrotation Yrotation Xrotation
											End Site
											{
												OFFSET -2.9715 -0.8029 0.0009
											}
										}
									}
								}
								JOINT mixamorig:RightHandRing1
								{
									OFFSET	-12.1659	-1.6803	-1.2769
									CHANNELS 3 Zrotation Yrotation Xrotation
									JOINT mixamorig:RightHandRing2
									{
										OFFSET	-3.5925	-0.2366	-0.0771
										CHANNELS 3 Zrotation Yrotation Xrotation
										JOINT mixamorig:RightHandRing3
										{
											OFFSET	-3.2906	-0.3265	-0.0615
											CHANNELS 3 Zrotation Yrotation Xrotation
											End Site
											{
												OFFSET -3.5423 -0.9210 -0.0200
											}
										}
									}
								}
								JOINT mixamorig:RightHandPinky1
								{
									OFFSET	-11.0508	-2.1870	-3.8040
									CHANNELS 3 Zrotation Yrotation Xrotation
									JOINT mixamorig:RightHandPinky2
									{
										OFFSET	-4.1236	-0.3046	0.1212
										CHANNELS 3 Zrotation Yrotation Xrotation
										JOINT mixamorig:RightHandPinky3
										{
											OFFSET	-2.5805	-0.2597	0.0823
											CHANNELS 3 Zrotation Yrotation Xrotation
											End Site
											{
												OFFSET -2.9027 -0.3379 0.0963
											}
										}
									}
								}
							}
						}
					}
				}
			}
		}
	}
	JOINT mixamorig:RightUpLeg
	{
		OFFSET	-9.1245	-6.6564	-0.0554
		CHANNELS 3 Zrotation Yrotation Xrotation
		JOINT mixamorig:RightLeg
		{
			OFFSET	0.0000	-40.5610	-1.7662
			CHANNELS 3 Zrotation Yrotation Xrotation
			JOINT mixamorig:RightFoot
			{
				OFFSET	0.4978	-41.9625	-3.3512
				CHANNELS 3 Zrotation Yrotation Xrotation
				JOINT mixamorig:RightToeBase
				{
					OFFSET	-0.3734	-10.4922	12.6406
					CHANNELS 3 Zrotation Yrotation Xrotation
					End Site
					{
						OFFSET 0.0000 0.0000 9.9925
					}
				}
			}
		}
	}
	JOINT mixamorig:LeftUpLeg
	{
		OFFSET	9.1245	-6.6564	-0.0554
		CHANNELS 3 Zrotation Yrotation Xrotation
		JOINT mixamorig:LeftLeg
		{
			OFFSET	-0.0000	-40.5610	-1.7662
			CHANNELS 3 Zrotation Yrotation Xrotation
			JOINT mixamorig:LeftFoot
			{
				OFFSET	-0.4978	-41.9625	-3.3512
				CHANNELS 3 Zrotation Yrotation Xrotation
				JOINT mixamorig:LeftToeBase
				{
					OFFSET	0.3734	-10.4922	12.6406
					CHANNELS 3 Zrotation Yrotation Xrotation
					End Site
					{
						OFFSET -0.0000 0.0000 9.9925
					}
				}
			}
		}
	}
}
MOTION
Frames: 9
Frame Time: 0.0333333
0.0902 91.3436 -0.5400 4.5059 -32.2625 -12.1181 4.0746 -5.7090 13.1520 0.7444 -2.3699 1.9939 0.7856 -2.3662 1.9815 -3.3753 14.4592 11.9658 7.0137 8.2790 17.8532 0.0000 -0.0000 0.0000 0.0000 -0.0000 0.0000 0.0000 -0.0000 0.0000 -12.7656 -11.4039 2.8185 -13.2492 -41.1198 -42.7332 0.5093 -54.2776 -2.0490 -24.7540 18.0277 -127.8314 -56.4331 -4.9784 2.7749 -57.3055 -2.1266 2.4889 -18.1751 -1.0173 0.5736 -3.9110 0.9439 6.7636 10.1445 -9.1883 13.1719 0.6108 -7.6517 -2.0410 -36.6125 -9.2756 0.3860 -57.2742 -2.8310 0.5596 -21.5917 -1.0513 -0.0939 -64.0616 -8.6750 2.8915 -73.9405 -3.9965 0.8925 -16.9118 -0.7411 -0.2249 -66.8344 -3.5043 3.4452 -74.3505 -2.1519 3.8493 -38.0018 -1.7488 1.6344 11.6026 5.0498 1.5488 61.8811 64.8077 42.1351 -120.0889 88.2568 -122.1108 -1.0663 -43.0624 -32.7860 55.6537 1.5151 3.3950 102.7374 3.1547 6.5858 19.0792 1.4530 0.6050 17.0970 -4.9081 13.6430 -23.1255 -7.7074 20.7474 -35.0231 -48.1138 34.8965 11.5392 8.5500 -0.8385 42.9664 3.1008 0.3223 27.1214 1.9611 -0.0564 59.7516 12.7211 2.9457 97.7587 5.9859 3.4127 41.4214 3.1932 0.0999 66.8322 10.7816 3.6334 81.0646 3.3562 5.1857 58.9000 3.2536 3.3787 5.4149 0.7748 -25.1251 -9.9936 4.8467 48.7283 1.5761 0.0855 -14.1913 0.0000 0.0000 -11.3305 0.5836 32.8128 -24.6813 -9.8197 -5.2405 77.0531 15.5066 0.0524 13.6619 -7.1067 -1.3352 -19.8617 
-0.0642 92.0773 -1.3126 4.6832 -32.4827 -12.2662 3.9577 -5.4313 12.9173 0.6509 -2.2733 2.6593 0.6916 -2.2723 2.6479 -3.2408 14.0987 11.4249 7.2905 8.8171 16.8884 0.0000 -0.0000 0.0000 0.0000 -0.0000 0.0000 0.0000 -0.0000 0.0000 -12.8162 -10.9845 2.8123 -11.4304 -42.7222 -44.0570 0.4687 -53.6042 -1.9989 -24.8389 18.3645 -127.4592 -56.4331 -4.9784 2.7749 -57.3055 -2.1266 2.4889 -18.1751 -1.0173 0.5736 -3.9110 0.9439 6.7636 10.1445 -9.1883 13.1719 0.6108 -7.6517 -2.0410 -36.6125 -9.2756 0.3860 -57.2742 -2.8310 0.5596 -21.5917 -1.0513 -0.0939 -64.0616 -8.6750 2.8915 -73.9405 -3.9966 0.8925 -16.9118 -0.7411 -0.2249 -66.8344 -3.5043 3.4452 -74.3505 -2.1519 3.8493 -38.0018 -1.7488 1.6344 10.8987 4.2796 -0.4606 64.7632 63.9886 44.2793 -119.9395 88.2596 -121.9614 -1.1686 -42.6478 -33.0250 55.6536 1.5150 3.3950 102.7374 3.1547 6.5858 19.0793 1.4530 0.6050 17.0970 -4.9081 13.6430 -23.1255 -7.7074 20.7473 -35.0231 -48.1138 34.8965 11.5392 8.5500 -0.8385 42.9664 3.1008 0.3222 27.1214 1.9611 -0.0564 59.7516 12.7211 2.9457 97.7587 5.9859 3.4127 41.4214 3.1932 0.0999 66.8322 10.7816 3.6334 81.0646 3.3562 5.1857 58.9000 3.2536 3.3787 4.4308 -0.2194 -22.9023 -9.4984 5.1897 47.5175 1.6956 0.1191 -15.1654 0.0000 -0.0000 -11.2628 0.6439 32.5602 -28.8970 -9.3869 -5.7463 72.7861 12.8812 -2.5211 10.4879 -5.4996 -1.0039 -19.1913 
-0.2205 92.7943 -2.0415 4.7829 -32.6845 -12.2715 3.7857 -5.1304 12.6682 0.5556 -2.1696 3.3801 0.5965 -2.1705 3.3699 -3.0893 13.7151 10.8457 7.5752 9.4097 15.8557 0.0000 -0.0000 0.0000 0.0000 -0.0000 0.0000 0.0000 -0.0000 0.0000 -12.8704 -10.5343 2.8059 -9.3021 -44.2814 -45.6949 0.4262 -52.8685 -1.9459 -24.8716 18.6117 -127.0201 -56.4331 -4.9784 2.7749 -57.3055 -2.1266 2.4888 -18.1751 -1.0173 0.5737 -3.9110 0.9439 6.7636 10.1445 -9.1883 13.1719 0.6108 -7.6517 -2.0410 -36.6125 -9.2756 0.3860 -57.2742 -2.8310 0.5597 -21.5917 -1.0513 -0.0940 -64.0616 -8.6750 2.8915 -73.9405 -3.9965 0.8925 -16.9118 -0.7411 -0.2249 -66.8344 -3.5043 3.4453 -74.3505 -2.1519 3.8493 -38.0018 -1.7488 1.6344 10.1499 3.4422 -2.6067 67.8859 63.0840 46.6305 -114.9276 88.3436 -116.9473 -1.3970 -41.9733 -33.1779 55.6537 1.5150 3.3950 102.7374 3.1547 6.5858 19.0792 1.4531 0.6051 17.0970 -4.9081 13.6430 -23.1255 -7.7074 20.7473 -35.0231 -48.1138 34.8965 11.5392 8.5500 -0.8385 42.9664 3.1008 0.3222 27.1214 1.9611 -0.0564 59.7516 12.7210 2.9457 97.7587 5.9859 3.4128 41.4214 3.1932 0.0999 66.8322 10.7816 3.6334 81.0646 3.3562 5.1857 58.9000 3.2536 3.3787 3.3841 -1.1504 -20.7668 -8.9908 5.5431 46.1881 2.1757 0.1840 -15.7151 0.0000 -0.0000 -11.1969 0.6371 32.2676 -31.3315 -8.6129 -6.5553 65.4978 10.0650 -4.1470 8.3757 -4.7907 -0.8630 -15.4785 
-0.3950 93.4724 -2.7169 4.7416 -32.8779 -12.1158 3.5590 -4.8113 12.4099 0.4726 -2.0586 4.1435 0.5134 -2.0572 4.1347 -2.9208 13.3134 10.2346 7.8620 10.0531 14.7665 0.0000 -0.0000 0.0000 0.0000 -0.0000 0.0000 0.0000 -0.0000 0.0000 -12.9276 -10.0580 2.7993 -6.9589 -45.7339 -47.5717 0.4069 -52.5234 -1.9217 -24.8955 19.0908 -126.6020 -56.4331 -4.9784 2.7749 -57.3055 -2.1266 2.4888 -18.1751 -1.0173 0.5737 -3.9110 0.9439 6.7636 10.1445 -9.1883 13.1719 0.6108 -7.6517 -2.0410 -36.6125 -9.2756 0.3860 -57.2742 -2.8309 0.5596 -21.5917 -1.0513 -0.0940 -64.0616 -8.6750 2.8915 -73.9405 -3.9965 0.8925 -16.9118 -0.7411 -0.2249 -66.8344 -3.5043 3.4453 -74.3505 -2.1519 3.8493 -38.0018 -1.7488 1.6344 9.3655 2.5449 -4.8652 70.8166 62.0278 48.7409 -116.4034 88.3211 -118.4237 -1.7195 -41.2628 -33.3140 55.6537 1.5150 3.3950 102.7374 3.1547 6.5858 19.0793 1.4530 0.6050 17.0970 -4.9081 13.6430 -23.1255 -7.7074 20.7474 -35.0231 -48.1138 34.8965 11.5392 8.5500 -0.8385 42.9664 3.1008 0.3222 27.1214 1.9611 -0.0564 59.7516 12.7211 2.9457 97.7587 5.9859 3.4127 41.4214 3.1932 0.0999 66.8322 10.7816 3.6334 81.0646 3.3562 5.1857 58.9000 3.2536 3.3787 2.4001 -1.9611 -18.6616 -8.5838 5.8076 44.7311 2.7736 0.2756 -16.0295 0.0000 0.0000 -11.3240 0.8502 31.8386 -32.3468 -7.5675 -7.4404 56.2174 7.1453 -4.7222 7.0294 -0.0000 0.0000 -9.7940 
-0.5610 94.0681 -3.2803 4.6674 -33.1935 -11.8920 3.3162 -4.4657 12.1481 0.3926 -1.8977 4.9397 0.4208 -1.8953 4.9311 -2.7361 12.8982 9.5978 8.1452 10.7430 13.6319 0.0000 -0.0000 0.0000 0.0000 -0.0000 0.0000 0.0000 -0.0000 0.0000 -12.9872 -9.5603 2.7926 -4.5316 -46.9221 -49.6136 0.4128 -52.6302 -1.9292 -24.9543 19.7315 -126.3024 -56.4331 -4.9784 2.7749 -57.3055 -2.1266 2.4889 -18.1751 -1.0173 0.5736 -3.9110 0.9439 6.7636 10.1445 -9.1883 13.1719 0.6108 -7.6517 -2.0410 -36.6125 -9.2756 0.3860 -57.2742 -2.8310 0.5596 -21.5917 -1.0513 -0.0939 -64.0616 -8.6750 2.8915 -73.9405 -3.9965 0.8925 -16.9118 -0.7411 -0.2249 -66.8344 -3.5043 3.4453 -74.3505 -2.1519 3.8493 -38.0018 -1.7488 1.6344 8.5545 1.5954 -7.2121 73.7446 60.8622 50.8308 -122.5471 88.2069 -124.5702 -2.1354 -40.6104 -33.3600 55.6537 1.5150 3.3950 102.7374 3.1547 6.5858 19.0792 1.4530 0.6051 17.0970 -4.9081 13.6430 -23.1255 -7.7074 20.7473 -35.0231 -48.1138 34.8965 11.5392 8.5500 -0.8384 42.9664 3.1008 0.3222 27.1214 1.9611 -0.0564 59.7516 12.7210 2.9457 97.7588 5.9859 3.4128 41.4214 3.1932 0.0999 66.8322 10.7815 3.6334 81.0646 3.3562 5.1857 58.9000 3.2536 3.3787 1.4118 -2.5372 -16.6470 -8.2241 6.0681 43.3755 3.2342 0.3586 -16.3178 0.0000 -0.0000 -11.6081 1.2748 31.2430 -31.9635 -6.3794 -8.2201 46.1184 4.5433 -4.0194 5.7310 -0.0000 0.0000 -8.5228 
-0.6736 94.5507 -3.6893 4.5453 -33.7864 -11.7497 3.0652 -4.0712 11.8784 0.3277 -1.6366 5.7720 0.3159 -1.6326 5.7606 -2.5358 12.4742 8.9414 8.4195 11.4744 12.4629 0.0000 -0.0000 0.0000 0.0000 -0.0000 0.0000 0.0000 -0.0000 0.0000 -13.0486 -9.0459 2.7860 -2.0374 -47.9809 -51.7620 0.4234 -52.8187 -1.9425 -24.9936 20.4294 -126.0289 -56.4331 -4.9784 2.7749 -57.3055 -2.1266 2.4888 -18.1751 -1.0173 0.5736 -3.9110 0.9439 6.7636 10.1445 -9.1883 13.1719 0.6108 -7.6517 -2.0410 -36.6125 -9.2756 0.3860 -57.2742 -2.8310 0.5597 -21.5917 -1.0513 -0.0940 -64.0616 -8.6750 2.8915 -73.9405 -3.9965 0.8925 -16.9117 -0.7411 -0.2249 -66.8344 -3.5043 3.4453 -74.3505 -2.1519 3.8493 -38.0018 -1.7488 1.6344 7.7258 0.6019 -9.6240 76.5342 59.5957 52.7561 -127.4572 88.0870 -129.4829 -2.4569 -39.8977 -33.5228 55.6536 1.5150 3.3950 102.7374 3.1547 6.5858 19.0792 1.4530 0.6050 17.0970 -4.9081 13.6430 -23.1255 -7.7074 20.7473 -35.0231 -48.1138 34.8965 11.5392 8.5500 -0.8385 42.9664 3.1008 0.3222 27.1214 1.9611 -0.0564 59.7516 12.7210 2.9457 97.7587 5.9859 3.4127 41.4214 3.1932 0.0999 66.8322 10.7816 3.6334 81.0646 3.3562 5.1857 58.9000 3.2536 3.3787 0.3783 -2.9585 -14.5867 -7.7618 6.4761 42.1625 3.5535 0.4332 -16.6782 0.0000 -0.0000 -11.9038 2.0999 30.5202 -29.6913 -5.1264 -8.8330 35.4099 2.6236 -2.1862 4.4075 -0.0000 0.0000 -5.3868 
-0.7178 94.8184 -3.9019 4.2381 -34.6209 -11.6724 2.8105 -3.6275 11.6026 0.2996 -1.2900 6.6320 0.2235 -1.2771 6.6144 -2.3214 12.0459 8.2715 8.6804 12.2415 11.2701 0.0000 -0.0000 0.0000 0.0000 -0.0000 0.0000 0.0000 -0.0000 0.0000 -13.1112 -8.5197 2.7794 0.6223 -49.0362 -54.0650 0.4365 -53.0495 -1.9588 -25.0316 21.3390 -125.7590 -56.4331 -4.9784 2.7749 -57.3055 -2.1266 2.4889 -18.1751 -1.0173 0.5736 -3.9110 0.9439 6.7636 10.1445 -9.1883 13.1719 0.6108 -7.6517 -2.0410 -36.6125 -9.2756 0.3860 -57.2742 -2.8310 0.5596 -21.5917 -1.0513 -0.0939 -64.0616 -8.6750 2.8915 -73.9405 -3.9965 0.8925 -16.9117 -0.7411 -0.2249 -66.8344 -3.5043 3.4452 -74.3505 -2.1519 3.8493 -38.0018 -1.7488 1.6344 6.8878 -0.4266 -12.0780 78.9060 58.2748 54.1793 -133.3909 87.8966 -135.4201 -2.5186 -39.1903 -34.0157 55.6537 1.5150 3.3950 102.7374 3.1547 6.5858 19.0792 1.4530 0.6051 17.0970 -4.9081 13.6430 -23.1255 -7.7074 20.7474 -35.0231 -48.1138 34.8965 11.5392 8.5500 -0.8385 42.9664 3.1008 0.3222 27.1214 1.9611 -0.0564 59.7516 12.7211 2.9457 97.7587 5.9859 3.4127 41.4214 3.1932 0.0999 66.8322 10.7816 3.6334 81.0646 3.3562 5.1857 58.9000 3.2536 3.3787 -0.6847 -3.5090 -12.5030 -7.0528 7.1945 41.3012 3.9773 0.5111 -17.2225 0.0000 -0.0000 -12.3027 3.2534 29.6481 -26.3426 -3.6218 -9.3764 25.3833 1.3505 0.3490 2.9804 -0.0000 0.0000 -1.8923 
-0.6690 94.9283 -3.9550 4.0239 -35.4252 -11.7094 2.5371 -3.1762 11.3062 0.2472 -0.9446 7.4804 0.1095 -0.9312 7.4563 -2.0941 11.6176 7.5941 8.9238 13.0379 10.0640 0.0000 -0.0000 0.0000 0.0000 -0.0000 0.0000 0.0000 -0.0000 0.0000 -13.1745 -7.9862 2.7731 3.3927 -49.9912 -56.5025 0.4460 -53.2156 -1.9707 -25.1041 22.1985 -125.5212 -56.4331 -4.9784 2.7749 -57.3055 -2.1266 2.4889 -18.1751 -1.0173 0.5736 -3.9110 0.9439 6.7636 10.1445 -9.1883 13.1719 0.6108 -7.6517 -2.0410 -36.6125 -9.2756 0.3860 -57.2742 -2.8310 0.5597 -21.5917 -1.0513 -0.0940 -64.0616 -8.6750 2.8915 -73.9405 -3.9965 0.8925 -16.9118 -0.7411 -0.2249 -66.8344 -3.5043 3.4453 -74.3505 -2.1519 3.8493 -38.0017 -1.7488 1.6344 6.0488 -1.4809 -14.5519 81.1912 56.9206 55.4927 -137.6749 87.7171 -139.7073 -2.5599 -38.5363 -34.5618 55.6536 1.5150 3.3950 102.7374 3.1547 6.5858 19.0792 1.4531 0.6050 17.0970 -4.9081 13.6430 -23.1255 -7.7074 20.7473 -35.0231 -48.1138 34.8965 11.5392 8.5500 -0.8385 42.9664 3.1008 0.3222 27.1214 1.9611 -0.0564 59.7516 12.7210 2.9457 97.7587 5.9859 3.4128 41.4214 3.1932 0.0998 66.8322 10.7816 3.6334 81.0646 3.3562 5.1857 58.9000 3.2536 3.3787 -2.0942 -4.2530 -10.4125 -6.1995 8.1209 40.6210 4.5103 0.6032 -17.9520 0.0000 -0.0000 -12.7234 4.0405 28.4584 -22.9280 -0.9437 -7.6611 17.2057 0.5726 0.8115 1.3133 0.0000 0.0000 -0.2335 
-0.4785 95.0318 -3.9053 4.1636 -36.0901 -11.8976 2.1998 -2.7258 10.9407 0.0902 -0.6292 8.2689 -0.0958 -0.6466 8.2414 -1.8560 11.1934 6.9152 9.1461 13.8564 8.8550 0.0000 -0.0000 0.0000 0.0000 -0.0000 0.0000 0.0000 -0.0000 0.0000 -13.2378 -7.4503 2.7670 6.1681 -50.8750 -58.9597 0.4357 -53.0349 -1.9578 -25.1154 22.7325 -125.1450 -56.4331 -4.9784 2.7749 -57.3056 -2.1266 2.4889 -18.1751 -1.0173 0.5736 -3.9110 0.9439 6.7636 10.1445 -9.1883 13.1719 0.6108 -7.6517 -2.0410 -36.6125 -9.2756 0.3860 -57.2742 -2.8310 0.5596 -21.5917 -1.0513 -0.0940 -64.0616 -8.6750 2.8915 -73.9405 -3.9965 0.8925 -16.9118 -0.7411 -0.2249 -66.8344 -3.5043 3.4453 -74.3505 -2.1519 3.8493 -38.0018 -1.7488 1.6344 5.2166 -2.5512 -17.0239 83.4629 55.4408 56.8830 -137.1640 87.7408 -139.1960 -2.8081 -37.6926 -35.0288 55.6536 1.5150 3.3950 102.7374 3.1547 6.5858 19.0792 1.4530 0.6050 17.0970 -4.9081 13.6430 -23.1255 -7.7074 20.7474 -35.0231 -48.1138 34.8965 11.5392 8.5500 -0.8385 42.9664 3.1008 0.3222 27.1214 1.9611 -0.0564 59.7516 12.7211 2.9457 97.7587 5.9859 3.4127 41.4214 3.1932 0.0999 66.8322 10.7816 3.6334 81.0646 3.3562 5.1857 58.9000 3.2536 3.3787 -4.1875 -5.0311 -8.1579 -5.2258 8.9857 39.5181 4.9659 0.7411 -18.7667 0.0000 -0.0000 -12.8926 4.3790 26.9050 -19.4517 0.4014 -5.9865 11.4566 1.1133 1.7441 -0.4235 0.0000 0.0000 -0.1510 
